<svg width="3942" height="2145" xmlns="http://www.w3.org/2000/svg" xmlns:xlink="http://www.w3.org/1999/xlink" xml:space="preserve" overflow="hidden"><g transform="translate(-192 -146)"><g><path d="M276 763C276 591.792 414.792 453 586 453 757.208 453 896 591.792 896 763 896 934.208 757.208 1073 586 1073 414.792 1073 276 934.208 276 763Z" stroke="#FF0000" stroke-width="29.7917" stroke-linecap="butt" stroke-linejoin="miter" stroke-miterlimit="8" stroke-opacity="1" fill="none" fill-rule="evenodd"/><path d="M1326 763C1326 591.792 1464.79 453 1636 453 1807.21 453 1946 591.792 1946 763 1946 934.208 1807.21 1073 1636 1073 1464.79 1073 1326 934.208 1326 763Z" stroke="#FF0000" stroke-width="29.7917" stroke-linecap="butt" stroke-linejoin="miter" stroke-miterlimit="8" stroke-opacity="1" fill="none" fill-rule="evenodd"/><path d="M2376 763C2376 591.792 2514.79 453 2686 453 2857.21 453 2996 591.792 2996 763 2996 934.208 2857.21 1073 2686 1073 2514.79 1073 2376 934.208 2376 763Z" stroke="#FF0000" stroke-width="29.7917" stroke-linecap="butt" stroke-linejoin="miter" stroke-miterlimit="8" stroke-opacity="1" fill="none" fill-rule="evenodd"/><path d="M3403 763C3403 591.792 3541.79 453 3713 453 3884.21 453 4023 591.792 4023 763 4023 934.208 3884.21 1073 3713 1073 3541.79 1073 3403 934.208 3403 763Z" stroke="#FF0000" stroke-width="29.7917" stroke-linecap="butt" stroke-linejoin="miter" stroke-miterlimit="8" stroke-opacity="1" fill="none" fill-rule="evenodd"/><path d="M276 1964.5C276 1793.02 414.792 1654 586 1654 757.208 1654 896 1793.02 896 1964.5 896 2135.98 757.208 2275 586 2275 414.792 2275 276 2135.98 276 1964.5Z" stroke="#47D45A" stroke-width="29.7917" stroke-linecap="butt" stroke-linejoin="miter" stroke-miterlimit="8" stroke-opacity="1" fill="none" fill-rule="evenodd"/><path d="M1326 1964.5C1326 1793.02 1464.79 1654 1636 1654 1807.21 1654 1946 1793.02 1946 1964.5 1946 2135.98 1807.21 2275 1636 2275 1464.79 2275 1326 2135.98 1326 1964.5Z" stroke="#47D45A" stroke-width="29.7917" stroke-linecap="butt" stroke-linejoin="miter" stroke-miterlimit="8" stroke-opacity="1" fill="none" fill-rule="evenodd"/><path d="M2376 1964.5C2376 1793.02 2514.79 1654 2686 1654 2857.21 1654 2996 1793.02 2996 1964.5 2996 2135.98 2857.21 2275 2686 2275 2514.79 2275 2376 2135.98 2376 1964.5Z" stroke="#47D45A" stroke-width="29.7917" stroke-linecap="butt" stroke-linejoin="miter" stroke-miterlimit="8" stroke-opacity="1" fill="none" fill-rule="evenodd"/><path d="M3403 1964.5C3403 1793.02 3541.79 1654 3713 1654 3884.21 1654 4023 1793.02 4023 1964.5 4023 2135.98 3884.21 2275 3713 2275 3541.79 2275 3403 2135.98 3403 1964.5Z" stroke="#47D45A" stroke-width="29.7917" stroke-linecap="butt" stroke-linejoin="miter" stroke-miterlimit="8" stroke-opacity="1" fill="none" fill-rule="evenodd"/><text fill="#FF0000" fill-opacity="1" font-family="Aptos,Aptos_MSFontService,sans-serif" font-style="normal" font-variant="normal" font-weight="400" font-stretch="normal" font-size="92" text-anchor="start" direction="ltr" writing-mode="lr-tb" unicode-bidi="normal" text-decoration="none" transform="matrix(1 0 0 1 314.058 262)">Lung cancer </text><text fill="#FF0000" fill-opacity="1" font-family="Aptos,Aptos_MSFontService,sans-serif" font-style="normal" font-variant="normal" font-weight="400" font-stretch="normal" font-size="92" text-anchor="start" direction="ltr" writing-mode="lr-tb" unicode-bidi="normal" text-decoration="none" transform="matrix(1 0 0 1 271.387 372)">related deaths</text><text fill="#FF0000" fill-opacity="1" font-family="Aptos,Aptos_MSFontService,sans-serif" font-style="normal" font-variant="normal" font-weight="400" font-stretch="normal" font-size="92" text-anchor="start" direction="ltr" writing-mode="lr-tb" unicode-bidi="normal" text-decoration="none" transform="matrix(1 0 0 1 1377.27 262)">Misdiagnosis </text><text fill="#FF0000" fill-opacity="1" font-family="Aptos,Aptos_MSFontService,sans-serif" font-style="normal" font-variant="normal" font-weight="400" font-stretch="normal" font-size="92" text-anchor="start" direction="ltr" writing-mode="lr-tb" unicode-bidi="normal" text-decoration="none" transform="matrix(1 0 0 1 1559.15 372)">rate</text><text fill="#FF0000" fill-opacity="1" font-family="Aptos,Aptos_MSFontService,sans-serif" font-style="normal" font-variant="normal" font-weight="400" font-stretch="normal" font-size="92" text-anchor="start" direction="ltr" writing-mode="lr-tb" unicode-bidi="normal" text-decoration="none" transform="matrix(1 0 0 1 2441.91 262)">Radiologists</text><text fill="#FF0000" fill-opacity="1" font-family="Aptos,Aptos_MSFontService,sans-serif" font-style="normal" font-variant="normal" font-weight="400" font-stretch="normal" font-size="92" text-anchor="start" direction="ltr" writing-mode="lr-tb" unicode-bidi="normal" text-decoration="none" transform="matrix(1 0 0 1 2502.91 372)">workload</text><text fill="#FF0000" fill-opacity="1" font-family="Aptos,Aptos_MSFontService,sans-serif" font-style="normal" font-variant="normal" font-weight="400" font-stretch="normal" font-size="92" text-anchor="start" direction="ltr" writing-mode="lr-tb" unicode-bidi="normal" text-decoration="none" transform="matrix(1 0 0 1 3383.75 262)">Costs by Medical </text><text fill="#FF0000" fill-opacity="1" font-family="Aptos,Aptos_MSFontService,sans-serif" font-style="normal" font-variant="normal" font-weight="400" font-stretch="normal" font-size="92" text-anchor="start" direction="ltr" writing-mode="lr-tb" unicode-bidi="normal" text-decoration="none" transform="matrix(1 0 0 1 3399.02 372)">Imaging Centers</text><text fill="#FF0000" fill-opacity="1" font-family="Aptos,Aptos_MSFontService,sans-serif" font-style="normal" font-variant="normal" font-weight="400" font-stretch="normal" font-size="183" text-anchor="start" direction="ltr" writing-mode="lr-tb" unicode-bidi="normal" text-decoration="none" transform="matrix(1 0 0 1 412.49 803)">12%</text><text fill="#FF0000" fill-opacity="1" font-family="Aptos,Aptos_MSFontService,sans-serif" font-style="normal" font-variant="normal" font-weight="400" font-stretch="normal" font-size="183" text-anchor="start" direction="ltr" writing-mode="lr-tb" unicode-bidi="normal" text-decoration="none" transform="matrix(1 0 0 1 1439.8 803)">42%</text><text fill="#FF0000" fill-opacity="1" font-family="Aptos,Aptos_MSFontService,sans-serif" font-style="normal" font-variant="normal" font-weight="400" font-stretch="normal" font-size="183" text-anchor="start" direction="ltr" writing-mode="lr-tb" unicode-bidi="normal" text-decoration="none" transform="matrix(1 0 0 1 2512.2 803)">80%</text><text fill="#FF0000" fill-opacity="1" font-family="Aptos,Aptos_MSFontService,sans-serif" font-style="normal" font-variant="normal" font-weight="400" font-stretch="normal" font-size="183" text-anchor="start" direction="ltr" writing-mode="lr-tb" unicode-bidi="normal" text-decoration="none" transform="matrix(1 0 0 1 3574.13 803)">$$$</text><text fill="#47D45A" fill-opacity="1" font-family="Aptos,Aptos_MSFontService,sans-serif" font-style="normal" font-variant="normal" font-weight="400" font-stretch="normal" font-size="183" text-anchor="start" direction="ltr" writing-mode="lr-tb" unicode-bidi="normal" text-decoration="none" transform="matrix(1 0 0 1 3664.12 2022)">$</text><text fill="#47D45A" fill-opacity="1" font-family="Aptos,Aptos_MSFontService,sans-serif" font-style="normal" font-variant="normal" font-weight="400" font-stretch="normal" font-size="183" text-anchor="start" direction="ltr" writing-mode="lr-tb" unicode-bidi="normal" text-decoration="none" transform="matrix(1 0 0 1 2512.2 2022)">40%</text><text fill="#47D45A" fill-opacity="1" font-family="Aptos,Aptos_MSFontService,sans-serif" font-style="normal" font-variant="normal" font-weight="400" font-stretch="normal" font-size="183" text-anchor="start" direction="ltr" writing-mode="lr-tb" unicode-bidi="normal" text-decoration="none" transform="matrix(1 0 0 1 1533.87 2022)">1%</text><text fill="#47D45A" fill-opacity="1" font-family="Aptos,Aptos_MSFontService,sans-serif" font-style="normal" font-variant="normal" font-weight="400" font-stretch="normal" font-size="183" text-anchor="start" direction="ltr" writing-mode="lr-tb" unicode-bidi="normal" text-decoration="none" transform="matrix(1 0 0 1 461.475 2022)">6%</text><path d="M600.896 1150 600.896 1531.7 571.105 1531.7 571.104 1150ZM630.688 1516.8 586 1606.18 541.313 1516.8Z" fill="#FFFFFF" fill-rule="nonzero" fill-opacity="1"/><path d="M1650.9 1155 1650.9 1531.84 1621.1 1531.84 1621.1 1155ZM1680.69 1516.95 1636 1606.32 1591.31 1516.95Z" fill="#FFFFFF" fill-rule="nonzero" fill-opacity="1"/><path d="M2692.9 1155 2692.9 1531.84 2663.1 1531.84 2663.1 1155ZM2722.69 1516.95 2678 1606.32 2633.31 1516.95Z" fill="#FFFFFF" fill-rule="nonzero" fill-opacity="1"/><path d="M3727.9 1155 3727.9 1531.84 3698.1 1531.84 3698.1 1155ZM3757.69 1516.95 3713 1606.32 3668.31 1516.95Z" fill="#FFFFFF" fill-rule="nonzero" fill-opacity="1"/></g></g></svg>